<?xml version="1.0" standalone="no"?>
<!DOCTYPE svg PUBLIC "-//W3C//DTD SVG 20010904//EN"
 "http://www.w3.org/TR/2001/REC-SVG-20010904/DTD/svg10.dtd">
<svg version="1.0" xmlns="http://www.w3.org/2000/svg"
 width="1024.000000pt" height="1024.000000pt" viewBox="0 0 1024.000000 1024.000000"
 preserveAspectRatio="xMidYMid meet">
<metadata>
Created by potrace 1.16, written by Peter Selinger 2001-2019
</metadata>
<g transform="translate(0.000000,1024.000000) scale(0.100000,-0.100000)"
fill="#000000" stroke="none">
<path d="M4321 8905 c-223 -49 -487 -186 -648 -339 -80 -75 -161 -187 -203
-279 l-28 -62 -74 -24 c-156 -49 -299 -141 -424 -274 -155 -162 -224 -342
-224 -580 l0 -112 -36 -24 c-97 -67 -230 -246 -288 -391 -112 -275 -105 -640
15 -900 22 -46 53 -106 70 -132 l30 -47 -21 -68 c-27 -88 -37 -244 -21 -352
42 -284 202 -522 449 -670 94 -56 249 -111 312 -111 38 0 40 -1 50 -42 41
-163 118 -301 237 -428 171 -182 366 -303 583 -361 112 -30 357 -34 460 -6
184 49 339 169 412 317 70 141 69 128 66 912 -3 662 -4 705 -22 740 -11 23
-80 94 -169 175 -242 220 -441 404 -459 425 -16 18 -18 50 -18 339 l0 318 316
238 c269 201 320 243 335 278 17 37 19 77 19 542 0 330 -4 520 -11 555 -36
174 -185 319 -371 363 -78 18 -251 18 -337 0z m321 -210 c65 -23 131 -85 165
-153 l28 -57 3 -466 3 -467 -43 -35 c-24 -19 -146 -114 -273 -211 -126 -97
-249 -195 -272 -216 -77 -72 -77 -73 -83 -363 l-5 -259 -125 110 c-69 60 -154
136 -189 168 l-63 59 -2 162 c-1 156 0 162 20 172 37 17 94 72 121 118 36 62
43 159 15 229 l-19 52 143 143 144 144 103 0 c92 0 108 3 159 28 97 48 148
133 148 246 -1 192 -212 328 -385 247 -54 -25 -119 -90 -140 -140 -21 -51 -27
-118 -15 -171 l11 -50 -158 -156 -159 -156 -84 1 c-74 1 -93 -3 -142 -27 -109
-54 -165 -152 -156 -276 3 -39 14 -83 26 -107 21 -41 82 -103 124 -125 12 -6
26 -17 30 -23 4 -6 8 -77 8 -157 0 -161 11 -215 57 -282 15 -22 116 -117 223
-211 107 -94 300 -268 429 -386 129 -118 298 -272 375 -342 78 -70 149 -140
158 -155 17 -26 18 -76 18 -658 0 -673 -3 -713 -50 -806 -32 -62 -112 -142
-172 -172 -92 -46 -169 -60 -298 -54 -230 11 -407 89 -584 257 -133 127 -207
251 -261 436 -37 126 -41 131 -122 139 -403 42 -686 346 -684 732 1 102 12
161 48 242 34 79 31 98 -31 175 -97 122 -140 237 -156 418 -16 186 21 385 98
533 50 95 146 194 244 253 79 46 80 47 74 82 -3 19 -8 89 -11 155 -6 102 -4
132 14 197 69 264 294 465 570 509 36 5 71 14 77 20 6 5 17 29 23 53 23 92 99
223 174 300 135 138 368 266 567 311 80 18 217 13 282 -10z m-231 -541 c51
-54 13 -144 -61 -144 -91 0 -123 121 -43 161 40 20 74 14 104 -17z m-670 -692
c26 -24 32 -36 32 -72 0 -36 -6 -48 -32 -72 -43 -38 -90 -38 -133 1 -27 24
-33 36 -33 71 0 35 6 47 33 71 43 39 90 39 133 1z"/>
<path d="M2983 6649 c-63 -24 -128 -85 -156 -147 -32 -70 -30 -180 5 -248 53
-103 145 -157 273 -160 l80 -3 140 -140 c173 -172 170 -171 419 -171 l170 0
188 -188 188 -188 0 -57 0 -57 -344 0 -344 0 -21 34 c-29 46 -92 102 -138 122
-58 25 -157 23 -218 -4 -99 -46 -155 -124 -163 -231 -9 -126 46 -224 156 -278
135 -66 280 -17 373 127 l16 25 399 5 c298 4 405 8 421 18 47 26 55 62 51 226
-3 131 -6 156 -25 191 -27 51 -412 422 -458 441 -24 10 -96 16 -230 21 l-196
6 -101 106 c-134 141 -131 136 -113 195 32 105 10 197 -66 280 -83 91 -194
118 -306 75z m168 -198 c21 -22 29 -39 29 -66 0 -80 -100 -126 -155 -71 -34
34 -41 71 -21 112 28 60 99 72 147 25z m250 -1200 c21 -22 29 -39 29 -66 0
-45 -45 -95 -85 -95 -63 0 -115 59 -101 116 19 74 103 98 157 45z"/>
<path d="M4230 4741 c-75 -23 -151 -89 -182 -159 -112 -250 147 -503 390 -381
131 65 189 204 146 349 -22 75 -109 162 -184 184 -56 17 -128 20 -170 7z m125
-187 c48 -22 71 -75 56 -125 -23 -76 -113 -99 -171 -44 -25 24 -30 37 -30 75
0 38 5 51 28 72 44 41 67 46 117 22z"/>
<path d="M5623 8906 c-182 -42 -329 -186 -374 -366 -12 -45 -13 -200 -10 -876
3 -758 2 -822 -14 -837 -13 -14 -37 -17 -126 -17 -100 0 -114 2 -162 28 -74
39 -172 39 -239 0 -91 -54 -148 -157 -148 -266 0 -75 13 -120 53 -178 109
-163 356 -148 452 27 24 44 29 66 30 121 l0 68 66 0 c98 0 166 24 216 76 75
78 73 42 73 969 0 601 3 831 12 856 48 140 165 207 342 196 241 -14 525 -139
690 -303 92 -91 135 -157 178 -276 17 -46 34 -88 39 -94 5 -6 40 -16 77 -23
200 -36 401 -183 486 -355 73 -148 90 -268 61 -420 -18 -93 -20 -89 77 -151
189 -123 293 -289 338 -542 16 -93 13 -279 -6 -362 -29 -130 -62 -197 -174
-354 -38 -53 -39 -44 16 -197 25 -70 26 -83 22 -200 -4 -106 -10 -138 -35
-213 -42 -119 -85 -188 -174 -278 -62 -63 -93 -85 -170 -122 -109 -53 -200
-77 -287 -77 -79 0 -91 -12 -127 -138 -81 -276 -196 -440 -398 -566 -156 -97
-314 -146 -477 -146 -211 0 -369 88 -448 250 -51 104 -54 157 -46 720 l6 505
432 427 431 427 331 0 c250 1 334 -2 346 -11 9 -7 27 -32 42 -55 45 -74 137
-123 231 -123 164 0 276 109 277 270 1 110 -53 202 -149 250 -38 20 -63 25
-123 25 -64 0 -83 -4 -128 -30 -30 -16 -65 -43 -79 -60 -13 -16 -31 -38 -39
-48 -13 -16 -42 -17 -389 -17 -328 1 -378 -1 -407 -16 -18 -9 -201 -183 -405
-387 l-373 -372 1 180 0 180 155 160 c86 88 163 174 172 190 13 24 18 69 22
227 3 111 9 201 15 207 6 5 105 84 220 176 l210 167 120 -6 c66 -3 121 -10
123 -15 2 -5 16 -29 33 -54 100 -151 316 -171 445 -43 111 112 115 286 8 405
-62 68 -120 94 -214 95 -113 1 -155 -25 -268 -159 l-23 -27 -132 7 c-82 4
-142 3 -158 -3 -15 -6 -106 -74 -203 -151 l-176 -141 0 415 c0 228 0 418 0
423 0 4 19 8 44 10 42 3 44 2 70 -42 120 -205 409 -188 503 31 24 57 23 167
-3 224 -27 58 -85 116 -143 143 -65 29 -180 29 -237 -1 -47 -25 -96 -72 -130
-125 l-24 -38 -90 0 c-89 0 -90 0 -129 -35 -26 -24 -42 -49 -50 -80 -8 -30
-11 -269 -11 -770 0 -520 -3 -733 -11 -748 -6 -12 -78 -90 -160 -173 -82 -84
-155 -167 -163 -185 -11 -28 -14 -197 -17 -954 -4 -1031 -9 -959 69 -1110 49
-96 173 -219 264 -263 119 -58 204 -75 373 -75 121 0 165 5 228 22 205 55 366
145 522 293 148 141 216 245 284 432 l36 99 88 23 c248 66 432 193 559 385
143 218 188 515 112 751 l-15 47 39 58 c71 106 107 188 144 338 31 127 31 337
-1 484 -51 240 -168 442 -334 577 l-57 47 6 76 c8 94 -9 210 -45 312 -84 237
-314 459 -564 544 l-86 29 -27 64 c-102 239 -322 441 -604 553 -206 81 -465
117 -607 85z m582 -849 c18 -15 28 -36 32 -64 5 -37 2 -45 -25 -73 -39 -38
-79 -40 -121 -4 -65 54 -28 164 55 164 20 0 43 -9 59 -23z m608 -757 c68 -54
29 -180 -55 -180 -59 0 -108 45 -108 100 0 28 26 77 47 89 30 17 88 13 116 -9z
m-1948 -683 c74 -63 -12 -187 -88 -127 -22 17 -27 30 -27 64 0 81 58 113 115
63z m2448 -247 c67 -53 29 -150 -59 -150 -37 0 -74 42 -74 83 0 75 74 113 133
67z"/>
<path d="M6613 5774 c-55 -20 -124 -81 -154 -138 l-24 -46 -134 0 c-114 0
-141 -3 -175 -20 -24 -11 -129 -106 -248 -222 -181 -177 -209 -208 -218 -246
-7 -28 -10 -156 -8 -365 3 -357 4 -361 70 -409 30 -21 46 -23 187 -28 138 -4
155 -7 165 -24 64 -110 188 -160 302 -122 110 36 174 127 174 246 -1 146 -104
251 -249 251 -91 1 -156 -33 -213 -111 l-30 -40 -97 0 -98 0 -6 182 c-9 224
-9 342 -1 362 9 24 335 327 363 338 16 6 68 7 128 3 l102 -7 27 -44 c50 -79
143 -129 239 -128 82 0 153 33 209 95 101 112 102 278 2 396 -15 17 -54 46
-88 62 -70 35 -152 41 -225 15z m147 -189 c59 -31 69 -107 21 -156 -88 -88
-224 41 -142 135 32 37 76 44 121 21z m-409 -1134 c36 -36 37 -73 4 -106 -49
-50 -135 -15 -135 55 0 39 39 80 75 80 16 0 38 -12 56 -29z"/>
<path d="M2320 3153 c0 -1 77 -131 170 -289 l170 -288 0 -196 0 -195 105 -1
105 -1 0 199 0 199 94 157 c89 150 200 342 225 390 l12 22 -113 0 -113 0 -60
-107 c-32 -60 -80 -146 -106 -191 l-46 -84 -104 190 -104 190 -118 4 c-64 2
-117 2 -117 1z"/>
<path d="M6818 3153 c-17 -4 -18 -36 -18 -489 l0 -484 100 0 100 0 2 290 3
290 196 -262 c108 -145 204 -276 214 -291 18 -28 18 -28 114 -25 l96 3 0 485
0 485 -102 3 -103 4 0 -306 0 -307 -227 305 -228 305 -65 -1 c-36 0 -73 -2
-82 -5z"/>
<path d="M1550 2671 l0 -481 168 -2 c244 -2 280 0 352 22 126 37 200 133 200
258 0 39 -6 78 -17 99 -20 44 -74 97 -114 113 l-30 13 30 18 c40 24 80 97 88
158 12 106 -41 197 -145 248 -57 28 -57 28 -294 31 l-238 3 0 -480z m429 282
c48 -40 42 -127 -12 -167 -22 -16 -47 -21 -122 -24 l-95 -4 0 106 0 106 104 0
c84 0 108 -3 125 -17z m4 -374 c42 -11 77 -56 77 -99 0 -38 -36 -90 -75 -106
-22 -9 -70 -14 -135 -14 l-100 0 0 115 0 115 98 0 c53 0 114 -5 135 -11z"/>
<path d="M3310 3060 l0 -90 130 0 130 0 0 -395 0 -396 103 3 102 3 3 393 2
392 130 0 130 0 0 90 0 90 -365 0 -365 0 0 -90z"/>
<path d="M4220 2665 l0 -485 310 0 310 0 0 95 0 95 -207 0 -208 0 0 105 0 105
180 0 180 0 -2 91 -1 90 -177 2 -177 2 0 98 0 99 204 1 203 2 3 93 3 92 -311
0 -310 0 0 -485z"/>
<path d="M5070 2665 l0 -485 106 0 107 0 -7 318 c-5 193 -4 313 2 307 5 -5 73
-115 152 -242 79 -128 146 -233 149 -233 3 0 45 64 93 143 48 78 117 187 153
242 l65 100 0 -317 0 -318 100 0 100 0 0 485 0 486 -117 -3 -117 -3 -137 -228
-137 -228 -114 188 c-63 103 -126 207 -139 230 l-24 43 -117 0 -118 0 0 -485z"/>
<path d="M6350 2665 l0 -485 100 0 100 0 0 485 0 485 -100 0 -100 0 0 -485z"/>
<path d="M7870 2664 l0 -486 218 5 c156 4 234 10 276 21 216 60 346 234 346
466 0 224 -141 409 -355 465 -44 11 -113 15 -272 15 l-213 0 0 -486z m442 280
c109 -37 180 -142 182 -267 1 -133 -49 -223 -152 -274 -48 -24 -72 -28 -159
-31 l-103 -4 0 296 0 296 93 0 c58 0 111 -6 139 -16z"/>
<path d="M4260 1505 l0 -295 190 0 191 0 -3 58 -3 57 -120 3 -120 3 3 234 3
235 -71 0 -70 0 0 -295z"/>
<path d="M4780 1740 l0 -60 80 0 80 0 0 -235 0 -235 70 0 70 0 0 235 0 235 80
0 80 0 0 60 0 60 -230 0 -230 0 0 -60z"/>
<path d="M5450 1505 l0 -295 153 0 c151 0 155 1 214 30 100 50 152 138 153
256 0 99 -22 158 -84 220 -73 72 -115 84 -293 84 l-143 0 0 -295z m250 174
c97 -21 147 -90 138 -194 -8 -96 -73 -151 -184 -156 -32 -1 -60 1 -61 4 -2 4
-3 86 -3 182 l0 175 30 0 c16 0 52 -5 80 -11z"/>
</g>
</svg>
